<?xml version="1.0" encoding="utf-8"?>
<!-- Generator: Adobe Illustrator 27.1.0, SVG Export Plug-In . SVG Version: 6.00 Build 0)  -->
<svg version="1.1" id="Capa_1" xmlns="http://www.w3.org/2000/svg" xmlns:xlink="http://www.w3.org/1999/xlink" x="0px" y="0px"
	 viewBox="0 0 1082 393" style="enable-background:new 0 0 1082 393;" xml:space="preserve">
<style type="text/css">
	.st0{fill:#12100B;}
</style>
<path class="st0" d="M385.49,305.63l-4.33,3.49v36.4h272.9c-9.31-6.11-18.02-13.16-26-21.11c-7.22-7.19-13.68-15.05-19.43-23.4
	H461.78c72.24-59.79,121.3-109.31,121.3-167.05c0-60.8-50.53-88.49-97.48-88.49c-41.77,0-78.27,17.08-100.13,46.85l-6.15,8.37
	l33.32,30.75l7.64-10.83c13.75-19.48,37.56-30.65,65.33-30.65c23.31,0,50.52,11.52,50.52,43.98
	C536.12,180.71,476.48,232.28,385.49,305.63z"/>
<g>
	<polygon class="st0" points="366.9,120.88 304.42,276.58 212.94,49.57 160.79,49.57 281.92,345.52 324.57,345.52 402.64,153.87 	
		"/>
</g>
<path class="st0" d="M845,255.43l-0.65,1.01c-20.12,31.08-54.13,49.64-90.98,49.64c-59.73,0-108.33-48.6-108.33-108.33
	c0-59.73,48.6-108.33,108.33-108.33c35.56,0,68.91,17.55,89.2,46.96l0.66,0.96l33.32-33.32l-0.52-0.68
	c-29.59-38.39-74.3-60.41-122.66-60.41c-85.37,0-154.82,69.45-154.82,154.82S668,352.57,753.37,352.57
	c48.92,0,95.51-23.54,124.62-62.98l0.5-0.67L845,255.43z"/>
<circle class="st0" cx="754.57" cy="191.86" r="16.02"/>
<circle class="st0" cx="723.7" cy="141.12" r="9.83"/>
<circle class="st0" cx="785.45" cy="141.12" r="9.83"/>
<circle class="st0" cx="684.7" cy="191.86" r="16.02"/>
<circle class="st0" cx="824.44" cy="191.86" r="16.02"/>
<circle class="st0" cx="785.57" cy="256.27" r="16.02"/>
<circle class="st0" cx="723.58" cy="256.27" r="16.02"/>
</svg>
